<svg width="270" height="68" viewBox="0 0 270 68" fill="none" xmlns="http://www.w3.org/2000/svg">
<g clip-path="url(#clip0_118_2348)">
<path d="M15.8808 51.8328V38.4621C15.8808 36.9446 15.6529 35.855 15.197 35.1933C14.7412 34.5316 14.006 34.2007 12.9914 34.2007C12.5889 34.1857 12.1891 34.2724 11.8291 34.4529C11.469 34.6333 11.1602 34.9016 10.9313 35.233C10.4067 36.0129 10.1468 36.9409 10.1902 37.8798V51.8328H0V27.3367H10.1902V31.1657H10.2872C11.0664 29.8073 12.1991 28.6853 13.5648 27.919C14.9291 27.1491 16.4715 26.7506 18.0379 26.7632C23.3933 26.7632 26.0724 30.1453 26.0754 36.9093V51.8328H15.8808Z" fill="#026584"/>
<path d="M46.2661 51.8328V48.0523H46.169C45.5213 49.0005 44.7532 49.8605 43.8839 50.6109C43.1907 51.1657 42.4173 51.6119 41.59 51.9343C40.6362 52.2867 39.6247 52.4573 38.608 52.4372C35.9318 52.4372 33.8908 51.5667 32.485 49.8257C31.0793 48.0847 30.3779 45.5158 30.3808 42.1191V27.3367H40.5843V41.3559C40.5843 43.7645 41.4856 44.9688 43.2884 44.9688C43.7128 44.9966 44.1377 44.9217 44.527 44.7504C44.9163 44.5792 45.2586 44.3167 45.5249 43.9851C46.0755 43.1687 46.3407 42.1931 46.2793 41.2103V27.3367H56.4651V51.8328H46.2661Z" fill="#026584"/>
<path d="M93.1056 51.8328V37.7166C93.1056 36.5402 92.8938 35.6579 92.4703 35.0698C92.0469 34.4816 91.3572 34.1875 90.4014 34.1875C89.9741 34.1687 89.5488 34.2564 89.1638 34.4428C88.7788 34.6291 88.4461 34.9082 88.1958 35.255C87.6217 36.1281 87.3447 37.1631 87.4061 38.2062V51.8328H77.216V37.9592C77.216 35.4535 76.3616 34.2007 74.653 34.2007C74.2027 34.1729 73.7526 34.258 73.3435 34.4483C72.9344 34.6385 72.5794 34.928 72.3106 35.2903C71.7871 36.0197 71.5239 37.0607 71.5209 38.4135V51.8328H61.3175V27.3367H71.5077V31.2143H71.6047C72.0859 30.4128 72.7058 29.7033 73.4354 29.1189C74.2839 28.4011 75.2395 27.8206 76.2675 27.3984C77.3531 26.9524 78.5172 26.7289 79.6907 26.7412C81.219 26.6894 82.7336 27.0441 84.08 27.769C85.3628 28.5455 86.4009 29.6676 87.0753 31.0069C87.9139 29.6571 89.1051 28.5619 90.5205 27.8396C91.997 27.0951 93.6314 26.7182 95.2848 26.7412C97.8522 26.7412 99.8226 27.5778 101.196 29.2512C102.569 30.9246 103.255 33.3405 103.252 36.499V51.8328H93.1056Z" fill="#026584"/>
<path d="M107.888 51.8328V15.5673H118.078V51.8328H107.888Z" fill="#026584"/>
<path d="M150.228 39.1546C150.228 43.2719 148.981 46.5172 146.487 48.8905C143.993 51.2638 140.504 52.4401 136.019 52.4195C131.569 52.4195 128.105 51.2667 125.626 48.961C123.147 46.6554 121.907 43.4778 121.907 39.4281C121.849 37.0531 122.452 34.7087 123.65 32.6568C124.833 30.7244 126.565 29.1886 128.626 28.2454C130.962 27.1885 133.504 26.667 136.068 26.7191C138.677 26.6672 141.263 27.2293 143.615 28.3601C145.64 29.3281 147.341 30.8599 148.516 32.7714C149.668 34.6992 150.261 36.9093 150.228 39.1546ZM139.897 39.2032C139.897 35.8682 138.62 34.2007 136.068 34.2007C133.515 34.2007 132.239 35.9476 132.239 39.4414C132.239 43.1234 133.531 44.9658 136.116 44.9688C138.636 44.9688 139.897 43.0469 139.897 39.2032Z" fill="#026584"/>
<path d="M174.221 51.1402C173.252 51.6235 172.208 51.9382 171.133 52.071C169.529 52.3284 167.906 52.4494 166.281 52.4328C163.879 52.4728 161.503 51.9326 159.355 50.8579C157.387 49.8743 155.746 48.3422 154.63 46.4466C153.503 44.5265 152.923 42.334 152.954 40.1075C152.878 37.5878 153.488 35.0947 154.719 32.895C155.924 30.8959 157.702 29.3052 159.823 28.3292C162.221 27.2283 164.838 26.6853 167.476 26.7412C168.913 26.7288 170.348 26.832 171.768 27.0499C173.039 27.2558 173.856 27.4955 174.221 27.769V35.7094C173.552 35.2332 172.806 34.8765 172.015 34.6551C171.16 34.3755 170.268 34.2268 169.369 34.214C167.375 34.214 165.865 34.6889 164.838 35.6388C163.812 36.5887 163.297 37.9239 163.294 39.6443C163.294 41.3383 163.8 42.6499 164.812 43.5792C165.823 44.5085 167.216 44.9761 168.989 44.982C170.825 44.9983 172.631 44.528 174.226 43.6189L174.221 51.1402Z" fill="#026584"/>
<path d="M194.032 51.8328L188.576 39.2517H188.479V51.8328H178.288V15.5673H188.479V38.8415H188.576L193.53 27.3367H204.999L198.382 38.5547L205.392 51.8328H194.032Z" fill="#026584"/>
<path fill-rule="evenodd" clip-rule="evenodd" d="M266.59 49.7419C264.795 51.3134 262.491 52.1802 260.105 52.1813C248.751 52.1813 237.016 52.2607 224.418 52.2607C221.702 52.2645 219.058 51.3868 216.883 49.7595L266.59 49.7419Z" fill="#E9B24B"/>
<path fill-rule="evenodd" clip-rule="evenodd" d="M269.766 40.1295C270.052 41.405 270.082 42.7244 269.855 44.0116C269.628 45.2988 269.148 46.5282 268.443 47.6288H214.664C212.921 45.5078 211.923 42.873 211.823 40.1295H269.766Z" fill="#E9B24B"/>
<path fill-rule="evenodd" clip-rule="evenodd" d="M260.105 32.3789C261.974 32.3779 263.805 32.906 265.385 33.9022C266.966 34.8983 268.233 36.3217 269.038 38.0077H211.916C212.351 34.7212 214.061 31.7374 216.676 29.6999C219.291 27.6624 222.602 26.7344 225.896 27.1161C227.486 23.5439 230.208 20.5945 233.642 18.7231C237.075 16.8518 241.029 16.1625 244.893 16.7617C248.757 17.3609 252.317 19.2152 255.022 22.0385C257.728 24.8618 259.429 28.4971 259.863 32.3833H260.105" fill="#E9B24B"/>
</g>
<defs>
<clipPath id="clip0_118_2348">
<rect width="270" height="36.8655" fill="white" transform="translate(0 15.5673)"/>
</clipPath>
</defs>
</svg>
